<mxfile host="app.diagrams.net" modified="2022-09-22T11:47:52.491Z" agent="5.0 (Macintosh; Intel Mac OS X 10_15_7) AppleWebKit/537.36 (KHTML, like Gecko) Chrome/105.0.0.0 Safari/537.36" etag="pwad7mOnwmpYBor7lElY" version="18.2.0" type="github">
  <diagram id="BH_5FovjF0cVhR7YU0kY" name="Page-1">
    <mxGraphModel dx="1455" dy="994" grid="1" gridSize="10" guides="1" tooltips="1" connect="1" arrows="1" fold="1" page="1" pageScale="1" pageWidth="827" pageHeight="1169" math="0" shadow="0">
      <root>
        <mxCell id="0" />
        <mxCell id="1" parent="0" />
        <mxCell id="DBebjSAjZn_3Q5ZQpwpb-36" value="" style="edgeStyle=none;rounded=0;orthogonalLoop=1;jettySize=auto;html=1;entryX=0.5;entryY=0;entryDx=0;entryDy=0;exitX=0.5;exitY=1;exitDx=0;exitDy=0;" edge="1" parent="1" source="DBebjSAjZn_3Q5ZQpwpb-41" target="DBebjSAjZn_3Q5ZQpwpb-42">
          <mxGeometry relative="1" as="geometry" />
        </mxCell>
        <mxCell id="DBebjSAjZn_3Q5ZQpwpb-40" value="" style="edgeStyle=none;rounded=0;orthogonalLoop=1;jettySize=auto;html=1;entryX=0.5;entryY=0;entryDx=0;entryDy=0;exitX=0.5;exitY=1;exitDx=0;exitDy=0;" edge="1" parent="1" source="DBebjSAjZn_3Q5ZQpwpb-41" target="DBebjSAjZn_3Q5ZQpwpb-58">
          <mxGeometry relative="1" as="geometry">
            <mxPoint x="976" y="-100" as="targetPoint" />
          </mxGeometry>
        </mxCell>
        <mxCell id="DBebjSAjZn_3Q5ZQpwpb-41" value="recall proxy" style="rounded=0;whiteSpace=wrap;html=1;fillColor=#f5f5f5;fontColor=#333333;strokeColor=#666666;" vertex="1" parent="1">
          <mxGeometry x="386" y="90" width="120" height="55" as="geometry" />
        </mxCell>
        <mxCell id="DBebjSAjZn_3Q5ZQpwpb-42" value="" style="rounded=0;whiteSpace=wrap;html=1;fillColor=#f5f5f5;fontColor=#333333;strokeColor=#666666;" vertex="1" parent="1">
          <mxGeometry x="120" y="220" width="300" height="170" as="geometry" />
        </mxCell>
        <mxCell id="DBebjSAjZn_3Q5ZQpwpb-47" style="edgeStyle=none;rounded=0;orthogonalLoop=1;jettySize=auto;html=1;exitX=0.5;exitY=1;exitDx=0;exitDy=0;entryX=0.5;entryY=0;entryDx=0;entryDy=0;" edge="1" parent="1" source="DBebjSAjZn_3Q5ZQpwpb-51" target="DBebjSAjZn_3Q5ZQpwpb-52">
          <mxGeometry relative="1" as="geometry" />
        </mxCell>
        <mxCell id="DBebjSAjZn_3Q5ZQpwpb-48" style="edgeStyle=none;rounded=0;orthogonalLoop=1;jettySize=auto;html=1;exitX=0.5;exitY=1;exitDx=0;exitDy=0;entryX=0.5;entryY=0;entryDx=0;entryDy=0;" edge="1" parent="1" source="DBebjSAjZn_3Q5ZQpwpb-51" target="DBebjSAjZn_3Q5ZQpwpb-53">
          <mxGeometry relative="1" as="geometry" />
        </mxCell>
        <mxCell id="DBebjSAjZn_3Q5ZQpwpb-49" style="edgeStyle=none;rounded=0;orthogonalLoop=1;jettySize=auto;html=1;exitX=0.5;exitY=1;exitDx=0;exitDy=0;entryX=0.5;entryY=0;entryDx=0;entryDy=0;" edge="1" parent="1" source="DBebjSAjZn_3Q5ZQpwpb-51" target="DBebjSAjZn_3Q5ZQpwpb-54">
          <mxGeometry relative="1" as="geometry" />
        </mxCell>
        <mxCell id="DBebjSAjZn_3Q5ZQpwpb-50" style="edgeStyle=none;rounded=0;orthogonalLoop=1;jettySize=auto;html=1;exitX=0.5;exitY=1;exitDx=0;exitDy=0;entryX=0.5;entryY=0;entryDx=0;entryDy=0;" edge="1" parent="1" source="DBebjSAjZn_3Q5ZQpwpb-51" target="DBebjSAjZn_3Q5ZQpwpb-55">
          <mxGeometry relative="1" as="geometry" />
        </mxCell>
        <mxCell id="DBebjSAjZn_3Q5ZQpwpb-51" value="merge" style="ellipse;whiteSpace=wrap;html=1;aspect=fixed;" vertex="1" parent="1">
          <mxGeometry x="236" y="230" width="50" height="50" as="geometry" />
        </mxCell>
        <mxCell id="DBebjSAjZn_3Q5ZQpwpb-52" value="Tag2&lt;br&gt;Recall" style="ellipse;whiteSpace=wrap;html=1;aspect=fixed;" vertex="1" parent="1">
          <mxGeometry x="136" y="330" width="50" height="50" as="geometry" />
        </mxCell>
        <mxCell id="DBebjSAjZn_3Q5ZQpwpb-53" value="Tag3&lt;br&gt;Recall" style="ellipse;whiteSpace=wrap;html=1;aspect=fixed;" vertex="1" parent="1">
          <mxGeometry x="206" y="330" width="50" height="50" as="geometry" />
        </mxCell>
        <mxCell id="DBebjSAjZn_3Q5ZQpwpb-54" value="Keyword&lt;br&gt;Recall" style="ellipse;whiteSpace=wrap;html=1;aspect=fixed;" vertex="1" parent="1">
          <mxGeometry x="276" y="330" width="50" height="50" as="geometry" />
        </mxCell>
        <mxCell id="DBebjSAjZn_3Q5ZQpwpb-55" value="Other&lt;br&gt;Recall" style="ellipse;whiteSpace=wrap;html=1;aspect=fixed;" vertex="1" parent="1">
          <mxGeometry x="366" y="330" width="50" height="50" as="geometry" />
        </mxCell>
        <mxCell id="DBebjSAjZn_3Q5ZQpwpb-58" value="" style="rounded=0;whiteSpace=wrap;html=1;fillColor=#f5f5f5;fontColor=#333333;strokeColor=#666666;" vertex="1" parent="1">
          <mxGeometry x="456" y="220" width="380" height="170" as="geometry" />
        </mxCell>
        <mxCell id="DBebjSAjZn_3Q5ZQpwpb-59" style="edgeStyle=none;rounded=0;orthogonalLoop=1;jettySize=auto;html=1;exitX=0.5;exitY=1;exitDx=0;exitDy=0;entryX=0.5;entryY=0;entryDx=0;entryDy=0;" edge="1" parent="1" source="DBebjSAjZn_3Q5ZQpwpb-63" target="DBebjSAjZn_3Q5ZQpwpb-72">
          <mxGeometry relative="1" as="geometry">
            <mxPoint x="486" y="320" as="targetPoint" />
          </mxGeometry>
        </mxCell>
        <mxCell id="DBebjSAjZn_3Q5ZQpwpb-60" style="edgeStyle=none;rounded=0;orthogonalLoop=1;jettySize=auto;html=1;exitX=0.5;exitY=1;exitDx=0;exitDy=0;entryX=0.5;entryY=0;entryDx=0;entryDy=0;" edge="1" parent="1" source="DBebjSAjZn_3Q5ZQpwpb-63" target="DBebjSAjZn_3Q5ZQpwpb-65">
          <mxGeometry relative="1" as="geometry" />
        </mxCell>
        <mxCell id="DBebjSAjZn_3Q5ZQpwpb-61" style="edgeStyle=none;rounded=0;orthogonalLoop=1;jettySize=auto;html=1;exitX=0.5;exitY=1;exitDx=0;exitDy=0;entryX=0.5;entryY=0;entryDx=0;entryDy=0;" edge="1" parent="1" source="DBebjSAjZn_3Q5ZQpwpb-63">
          <mxGeometry relative="1" as="geometry">
            <mxPoint x="706" y="330" as="targetPoint" />
          </mxGeometry>
        </mxCell>
        <mxCell id="DBebjSAjZn_3Q5ZQpwpb-62" style="edgeStyle=none;rounded=0;orthogonalLoop=1;jettySize=auto;html=1;exitX=0.5;exitY=1;exitDx=0;exitDy=0;entryX=0.5;entryY=0;entryDx=0;entryDy=0;" edge="1" parent="1" source="DBebjSAjZn_3Q5ZQpwpb-63" target="DBebjSAjZn_3Q5ZQpwpb-67">
          <mxGeometry relative="1" as="geometry" />
        </mxCell>
        <mxCell id="DBebjSAjZn_3Q5ZQpwpb-63" value="merge" style="ellipse;whiteSpace=wrap;html=1;aspect=fixed;" vertex="1" parent="1">
          <mxGeometry x="626" y="230" width="50" height="50" as="geometry" />
        </mxCell>
        <mxCell id="DBebjSAjZn_3Q5ZQpwpb-65" value="Tower01&lt;br&gt;Model" style="ellipse;whiteSpace=wrap;html=1;aspect=fixed;" vertex="1" parent="1">
          <mxGeometry x="606" y="330" width="50" height="50" as="geometry" />
        </mxCell>
        <mxCell id="DBebjSAjZn_3Q5ZQpwpb-67" value="Other&lt;br&gt;Model" style="ellipse;whiteSpace=wrap;html=1;aspect=fixed;" vertex="1" parent="1">
          <mxGeometry x="776" y="330" width="50" height="50" as="geometry" />
        </mxCell>
        <mxCell id="DBebjSAjZn_3Q5ZQpwpb-68" value="&lt;font style=&quot;font-size: 15px;&quot;&gt;...&lt;/font&gt;" style="text;html=1;strokeColor=none;fillColor=none;align=center;verticalAlign=middle;whiteSpace=wrap;rounded=0;" vertex="1" parent="1">
          <mxGeometry x="730" y="334" width="60" height="30" as="geometry" />
        </mxCell>
        <mxCell id="DBebjSAjZn_3Q5ZQpwpb-72" value="Ucf01&lt;br&gt;Model" style="ellipse;whiteSpace=wrap;html=1;aspect=fixed;" vertex="1" parent="1">
          <mxGeometry x="466" y="330" width="50" height="50" as="geometry" />
        </mxCell>
        <mxCell id="DBebjSAjZn_3Q5ZQpwpb-73" value="Ucf02&lt;br&gt;Model" style="ellipse;whiteSpace=wrap;html=1;aspect=fixed;" vertex="1" parent="1">
          <mxGeometry x="536" y="330" width="50" height="50" as="geometry" />
        </mxCell>
        <mxCell id="DBebjSAjZn_3Q5ZQpwpb-74" value="Embedding&lt;br&gt;Model" style="ellipse;whiteSpace=wrap;html=1;fontSize=10;" vertex="1" parent="1">
          <mxGeometry x="676" y="330" width="65" height="50" as="geometry" />
        </mxCell>
        <mxCell id="DBebjSAjZn_3Q5ZQpwpb-76" style="edgeStyle=none;rounded=0;orthogonalLoop=1;jettySize=auto;html=1;exitX=0.5;exitY=1;exitDx=0;exitDy=0;entryX=0.5;entryY=0;entryDx=0;entryDy=0;" edge="1" parent="1" source="DBebjSAjZn_3Q5ZQpwpb-63" target="DBebjSAjZn_3Q5ZQpwpb-73">
          <mxGeometry relative="1" as="geometry">
            <mxPoint x="621" y="170" as="sourcePoint" />
            <mxPoint x="501" y="340" as="targetPoint" />
          </mxGeometry>
        </mxCell>
        <mxCell id="DBebjSAjZn_3Q5ZQpwpb-77" value="&lt;font style=&quot;font-size: 15px;&quot;&gt;...&lt;/font&gt;" style="text;html=1;strokeColor=none;fillColor=none;align=center;verticalAlign=middle;whiteSpace=wrap;rounded=0;" vertex="1" parent="1">
          <mxGeometry x="316" y="334" width="60" height="30" as="geometry" />
        </mxCell>
        <mxCell id="DBebjSAjZn_3Q5ZQpwpb-78" value="grc" style="text;html=1;strokeColor=none;fillColor=none;align=center;verticalAlign=middle;whiteSpace=wrap;rounded=0;fontSize=15;" vertex="1" parent="1">
          <mxGeometry x="120" y="220" width="60" height="30" as="geometry" />
        </mxCell>
        <mxCell id="DBebjSAjZn_3Q5ZQpwpb-79" value="grc" style="text;html=1;strokeColor=none;fillColor=none;align=center;verticalAlign=middle;whiteSpace=wrap;rounded=0;fontSize=15;" vertex="1" parent="1">
          <mxGeometry x="456" y="220" width="60" height="30" as="geometry" />
        </mxCell>
        <mxCell id="DBebjSAjZn_3Q5ZQpwpb-80" value="" style="edgeStyle=none;rounded=0;orthogonalLoop=1;jettySize=auto;html=1;entryX=0.5;entryY=0;entryDx=0;entryDy=0;exitX=0.5;exitY=1;exitDx=0;exitDy=0;" edge="1" parent="1" source="DBebjSAjZn_3Q5ZQpwpb-82" target="DBebjSAjZn_3Q5ZQpwpb-83">
          <mxGeometry relative="1" as="geometry" />
        </mxCell>
        <mxCell id="DBebjSAjZn_3Q5ZQpwpb-81" value="" style="edgeStyle=none;rounded=0;orthogonalLoop=1;jettySize=auto;html=1;entryX=0.5;entryY=0;entryDx=0;entryDy=0;exitX=0.5;exitY=1;exitDx=0;exitDy=0;" edge="1" parent="1" source="DBebjSAjZn_3Q5ZQpwpb-82" target="DBebjSAjZn_3Q5ZQpwpb-93">
          <mxGeometry relative="1" as="geometry">
            <mxPoint x="984" y="290" as="targetPoint" />
          </mxGeometry>
        </mxCell>
        <mxCell id="DBebjSAjZn_3Q5ZQpwpb-82" value="recall proxy" style="rounded=0;whiteSpace=wrap;html=1;fillColor=#f5f5f5;fontColor=#333333;strokeColor=#666666;" vertex="1" parent="1">
          <mxGeometry x="516" y="480" width="120" height="55" as="geometry" />
        </mxCell>
        <mxCell id="DBebjSAjZn_3Q5ZQpwpb-83" value="" style="rounded=0;whiteSpace=wrap;html=1;fillColor=#f5f5f5;fontColor=#333333;strokeColor=#666666;" vertex="1" parent="1">
          <mxGeometry x="128" y="610" width="300" height="170" as="geometry" />
        </mxCell>
        <mxCell id="DBebjSAjZn_3Q5ZQpwpb-84" style="edgeStyle=none;rounded=0;orthogonalLoop=1;jettySize=auto;html=1;exitX=0.5;exitY=1;exitDx=0;exitDy=0;entryX=0.5;entryY=0;entryDx=0;entryDy=0;" edge="1" parent="1" source="DBebjSAjZn_3Q5ZQpwpb-88" target="DBebjSAjZn_3Q5ZQpwpb-89">
          <mxGeometry relative="1" as="geometry" />
        </mxCell>
        <mxCell id="DBebjSAjZn_3Q5ZQpwpb-85" style="edgeStyle=none;rounded=0;orthogonalLoop=1;jettySize=auto;html=1;exitX=0.5;exitY=1;exitDx=0;exitDy=0;entryX=0.5;entryY=0;entryDx=0;entryDy=0;" edge="1" parent="1" source="DBebjSAjZn_3Q5ZQpwpb-88" target="DBebjSAjZn_3Q5ZQpwpb-90">
          <mxGeometry relative="1" as="geometry" />
        </mxCell>
        <mxCell id="DBebjSAjZn_3Q5ZQpwpb-86" style="edgeStyle=none;rounded=0;orthogonalLoop=1;jettySize=auto;html=1;exitX=0.5;exitY=1;exitDx=0;exitDy=0;entryX=0.5;entryY=0;entryDx=0;entryDy=0;" edge="1" parent="1" source="DBebjSAjZn_3Q5ZQpwpb-88" target="DBebjSAjZn_3Q5ZQpwpb-91">
          <mxGeometry relative="1" as="geometry" />
        </mxCell>
        <mxCell id="DBebjSAjZn_3Q5ZQpwpb-87" style="edgeStyle=none;rounded=0;orthogonalLoop=1;jettySize=auto;html=1;exitX=0.5;exitY=1;exitDx=0;exitDy=0;entryX=0.5;entryY=0;entryDx=0;entryDy=0;" edge="1" parent="1" source="DBebjSAjZn_3Q5ZQpwpb-88" target="DBebjSAjZn_3Q5ZQpwpb-92">
          <mxGeometry relative="1" as="geometry" />
        </mxCell>
        <mxCell id="DBebjSAjZn_3Q5ZQpwpb-88" value="merge" style="ellipse;whiteSpace=wrap;html=1;aspect=fixed;" vertex="1" parent="1">
          <mxGeometry x="244" y="620" width="50" height="50" as="geometry" />
        </mxCell>
        <mxCell id="DBebjSAjZn_3Q5ZQpwpb-89" value="Tag2&lt;br&gt;Recall" style="ellipse;whiteSpace=wrap;html=1;aspect=fixed;" vertex="1" parent="1">
          <mxGeometry x="144" y="720" width="50" height="50" as="geometry" />
        </mxCell>
        <mxCell id="DBebjSAjZn_3Q5ZQpwpb-90" value="Tag3&lt;br&gt;Recall" style="ellipse;whiteSpace=wrap;html=1;aspect=fixed;" vertex="1" parent="1">
          <mxGeometry x="214" y="720" width="50" height="50" as="geometry" />
        </mxCell>
        <mxCell id="DBebjSAjZn_3Q5ZQpwpb-91" value="Keyword&lt;br&gt;Recall" style="ellipse;whiteSpace=wrap;html=1;aspect=fixed;" vertex="1" parent="1">
          <mxGeometry x="284" y="720" width="50" height="50" as="geometry" />
        </mxCell>
        <mxCell id="DBebjSAjZn_3Q5ZQpwpb-92" value="Other&lt;br&gt;Recall" style="ellipse;whiteSpace=wrap;html=1;aspect=fixed;" vertex="1" parent="1">
          <mxGeometry x="374" y="720" width="50" height="50" as="geometry" />
        </mxCell>
        <mxCell id="DBebjSAjZn_3Q5ZQpwpb-93" value="" style="rounded=0;whiteSpace=wrap;html=1;fillColor=#f5f5f5;fontColor=#333333;strokeColor=#666666;" vertex="1" parent="1">
          <mxGeometry x="446" y="610" width="130" height="90" as="geometry" />
        </mxCell>
        <mxCell id="DBebjSAjZn_3Q5ZQpwpb-106" value="&lt;font style=&quot;font-size: 15px;&quot;&gt;...&lt;/font&gt;" style="text;html=1;strokeColor=none;fillColor=none;align=center;verticalAlign=middle;whiteSpace=wrap;rounded=0;" vertex="1" parent="1">
          <mxGeometry x="324" y="724" width="60" height="30" as="geometry" />
        </mxCell>
        <mxCell id="DBebjSAjZn_3Q5ZQpwpb-107" value="grc" style="text;html=1;strokeColor=none;fillColor=none;align=center;verticalAlign=middle;whiteSpace=wrap;rounded=0;fontSize=15;" vertex="1" parent="1">
          <mxGeometry x="128" y="610" width="60" height="30" as="geometry" />
        </mxCell>
        <mxCell id="DBebjSAjZn_3Q5ZQpwpb-108" value="recall_model" style="text;html=1;strokeColor=none;fillColor=none;align=center;verticalAlign=middle;whiteSpace=wrap;rounded=0;fontSize=15;" vertex="1" parent="1">
          <mxGeometry x="446" y="610" width="95" height="20" as="geometry" />
        </mxCell>
        <mxCell id="DBebjSAjZn_3Q5ZQpwpb-109" value="Ucf01&lt;br&gt;Model" style="ellipse;whiteSpace=wrap;html=1;aspect=fixed;" vertex="1" parent="1">
          <mxGeometry x="486" y="640" width="50" height="50" as="geometry" />
        </mxCell>
        <mxCell id="DBebjSAjZn_3Q5ZQpwpb-110" value="" style="rounded=0;whiteSpace=wrap;html=1;fillColor=#f5f5f5;fontColor=#333333;strokeColor=#666666;" vertex="1" parent="1">
          <mxGeometry x="596" y="610" width="130" height="90" as="geometry" />
        </mxCell>
        <mxCell id="DBebjSAjZn_3Q5ZQpwpb-111" value="recall_model" style="text;html=1;strokeColor=none;fillColor=none;align=center;verticalAlign=middle;whiteSpace=wrap;rounded=0;fontSize=15;" vertex="1" parent="1">
          <mxGeometry x="596" y="610" width="95" height="20" as="geometry" />
        </mxCell>
        <mxCell id="DBebjSAjZn_3Q5ZQpwpb-112" value="Ucf02&lt;br&gt;Model" style="ellipse;whiteSpace=wrap;html=1;aspect=fixed;" vertex="1" parent="1">
          <mxGeometry x="636" y="640" width="50" height="50" as="geometry" />
        </mxCell>
        <mxCell id="DBebjSAjZn_3Q5ZQpwpb-113" value="" style="rounded=0;whiteSpace=wrap;html=1;fillColor=#f5f5f5;fontColor=#333333;strokeColor=#666666;" vertex="1" parent="1">
          <mxGeometry x="741" y="610" width="130" height="90" as="geometry" />
        </mxCell>
        <mxCell id="DBebjSAjZn_3Q5ZQpwpb-114" value="recall_model" style="text;html=1;strokeColor=none;fillColor=none;align=center;verticalAlign=middle;whiteSpace=wrap;rounded=0;fontSize=15;" vertex="1" parent="1">
          <mxGeometry x="741" y="610" width="95" height="20" as="geometry" />
        </mxCell>
        <mxCell id="DBebjSAjZn_3Q5ZQpwpb-115" value="Tower01&lt;br&gt;Model" style="ellipse;whiteSpace=wrap;html=1;aspect=fixed;" vertex="1" parent="1">
          <mxGeometry x="781" y="640" width="50" height="50" as="geometry" />
        </mxCell>
        <mxCell id="DBebjSAjZn_3Q5ZQpwpb-116" value="" style="rounded=0;whiteSpace=wrap;html=1;fillColor=#f5f5f5;fontColor=#333333;strokeColor=#666666;" vertex="1" parent="1">
          <mxGeometry x="886" y="610" width="130" height="90" as="geometry" />
        </mxCell>
        <mxCell id="DBebjSAjZn_3Q5ZQpwpb-117" value="recall_model" style="text;html=1;strokeColor=none;fillColor=none;align=center;verticalAlign=middle;whiteSpace=wrap;rounded=0;fontSize=15;" vertex="1" parent="1">
          <mxGeometry x="886" y="610" width="95" height="20" as="geometry" />
        </mxCell>
        <mxCell id="DBebjSAjZn_3Q5ZQpwpb-119" value="Embedding&lt;br&gt;Model" style="ellipse;whiteSpace=wrap;html=1;fontSize=10;" vertex="1" parent="1">
          <mxGeometry x="918.5" y="640" width="65" height="50" as="geometry" />
        </mxCell>
        <mxCell id="DBebjSAjZn_3Q5ZQpwpb-120" value="" style="edgeStyle=none;rounded=0;orthogonalLoop=1;jettySize=auto;html=1;entryX=0.5;entryY=0;entryDx=0;entryDy=0;exitX=0.5;exitY=1;exitDx=0;exitDy=0;" edge="1" parent="1" source="DBebjSAjZn_3Q5ZQpwpb-82" target="DBebjSAjZn_3Q5ZQpwpb-111">
          <mxGeometry relative="1" as="geometry">
            <mxPoint x="556" y="610" as="targetPoint" />
            <mxPoint x="499" y="535" as="sourcePoint" />
          </mxGeometry>
        </mxCell>
        <mxCell id="DBebjSAjZn_3Q5ZQpwpb-121" value="" style="edgeStyle=none;rounded=0;orthogonalLoop=1;jettySize=auto;html=1;entryX=0.25;entryY=0;entryDx=0;entryDy=0;exitX=0.5;exitY=1;exitDx=0;exitDy=0;" edge="1" parent="1" source="DBebjSAjZn_3Q5ZQpwpb-82" target="DBebjSAjZn_3Q5ZQpwpb-114">
          <mxGeometry relative="1" as="geometry">
            <mxPoint x="603" y="605" as="targetPoint" />
            <mxPoint x="546" y="530" as="sourcePoint" />
          </mxGeometry>
        </mxCell>
        <mxCell id="DBebjSAjZn_3Q5ZQpwpb-122" value="" style="edgeStyle=none;rounded=0;orthogonalLoop=1;jettySize=auto;html=1;entryX=0.5;entryY=0;entryDx=0;entryDy=0;exitX=0.5;exitY=1;exitDx=0;exitDy=0;" edge="1" parent="1" source="DBebjSAjZn_3Q5ZQpwpb-82" target="DBebjSAjZn_3Q5ZQpwpb-117">
          <mxGeometry relative="1" as="geometry">
            <mxPoint x="776" y="595" as="targetPoint" />
            <mxPoint x="719" y="520" as="sourcePoint" />
          </mxGeometry>
        </mxCell>
        <mxCell id="DBebjSAjZn_3Q5ZQpwpb-123" value="&lt;font style=&quot;font-size: 15px;&quot;&gt;...&lt;/font&gt;" style="text;html=1;strokeColor=none;fillColor=none;align=center;verticalAlign=middle;whiteSpace=wrap;rounded=0;" vertex="1" parent="1">
          <mxGeometry x="1001" y="640" width="60" height="30" as="geometry" />
        </mxCell>
        <mxCell id="DBebjSAjZn_3Q5ZQpwpb-124" value="" style="rounded=0;whiteSpace=wrap;html=1;fillColor=#f5f5f5;fontColor=#333333;strokeColor=#666666;" vertex="1" parent="1">
          <mxGeometry x="1046" y="610" width="130" height="90" as="geometry" />
        </mxCell>
        <mxCell id="DBebjSAjZn_3Q5ZQpwpb-125" value="recall_model" style="text;html=1;strokeColor=none;fillColor=none;align=center;verticalAlign=middle;whiteSpace=wrap;rounded=0;fontSize=15;" vertex="1" parent="1">
          <mxGeometry x="1046" y="610" width="95" height="20" as="geometry" />
        </mxCell>
        <mxCell id="DBebjSAjZn_3Q5ZQpwpb-126" value="Other&lt;br&gt;Model" style="ellipse;whiteSpace=wrap;html=1;aspect=fixed;" vertex="1" parent="1">
          <mxGeometry x="1086" y="640" width="50" height="50" as="geometry" />
        </mxCell>
        <mxCell id="DBebjSAjZn_3Q5ZQpwpb-127" value="" style="edgeStyle=none;rounded=0;orthogonalLoop=1;jettySize=auto;html=1;entryX=0.5;entryY=0;entryDx=0;entryDy=0;exitX=0.5;exitY=1;exitDx=0;exitDy=0;" edge="1" parent="1" source="DBebjSAjZn_3Q5ZQpwpb-82" target="DBebjSAjZn_3Q5ZQpwpb-125">
          <mxGeometry relative="1" as="geometry">
            <mxPoint x="943.5" y="620" as="targetPoint" />
            <mxPoint x="586" y="545" as="sourcePoint" />
          </mxGeometry>
        </mxCell>
      </root>
    </mxGraphModel>
  </diagram>
</mxfile>
